Mejasi - Kolinje VHSRip Xvid-DKC

General
Format                           : AVI
Format/Info                      : Audio Video Interleave
File size                        : 300 MiB
Duration                         : 29mn 14s
Overall bit rate                 : 1 434 Kbps
Writing application              : VirtualDubMod 1.5.4.1 (build 2178/release)
Writing library                  : VirtualDubMod build 2178/release
Original source form             : DKC TORRENT
Copyright                        : KOWALSKY 2011

Video
ID                               : 0
Format                           : MPEG-4 Visual
Format profile                   : Advanced Simple@L5
Format settings, BVOP            : Yes
Format settings, QPel            : No
Format settings, GMC             : No warppoints
Format settings, Matrix          : Custom
Codec ID                         : XVID
Codec ID/Hint                    : XviD
Duration                         : 29mn 14s
Bit rate                         : 1 321 Kbps
Width                            : 448 pixels
Height                           : 336 pixels
Display aspect ratio             : 4:3
Frame rate                       : 25.000 fps
Color space                      : YUV
Chroma subsampling               : 4:2:0
Bit depth                        : 8 bits
Scan type                        : Progressive
Bits/(Pixel*Frame)               : 0.351
Stream size                      : 276 MiB (92%)
Writing library                  : XviD 1.2.1 (UTC 2008-12-04)

Audio
ID                               : 1
Format                           : MPEG Audio
Format version                   : Version 1
Format profile                   : Layer 3
Mode                             : Joint stereo
Codec ID                         : 55
Codec ID/Hint                    : MP3
Duration                         : 29mn 14s
Bit rate mode                    : Variable
Bit rate                         : 100.0 Kbps
Nominal bit rate                 : 128 Kbps
Channel(s)                       : 2 channels
Sampling rate                    : 48.0 KHz
Stream size                      : 20.9 MiB (7%)
Alignment                        : Aligned on interleaves
Interleave, duration             : 24 ms (0.60 video frame)
Interleave, preload duration     : 522 ms

Source                           :VHS (HTV 1)


Posebna epizoda kultne tv-serije MejaÅ¡i reÅ¾isera KreÅ¡e Golika, po scenariju Mladena Kerstnera, snimljena nakon 6 epizoda serije poslije 1970. godine.
Mikrokozmos ruralne sredine Podravine, Golik je snimio po Kerstnerovom scenariju. Kerstner je u taj skript uloÅ¾io nekoliko godina Å¾ivota, biljeÅ¾eÄ‡i po seoskim birtijama dogodovÅ¡tine razliÄitih "likova" koji tvore okosnicu druÅ¡tvenog Å¾ivota u malim panonskim selima. Nezaboravni likovi Cinobera, Presvetlog, Martina birtaÅ¡a ili Besnog i danas su dio pop-folklora i narodnog Å¾ivota u Podravini, ali isto tako i u MeÄ‘imurju, pa i drugim Å¾upanijama uz Dravu.